<?xml version="1.0" encoding="UTF-8" standalone="no"?><!DOCTYPE svg PUBLIC "-//W3C//DTD SVG 1.1//EN" "http://www.w3.org/Graphics/SVG/1.1/DTD/svg11.dtd"><svg width="100%" height="100%" viewBox="0 0 150 626" version="1.1" xmlns="http://www.w3.org/2000/svg" xmlns:xlink="http://www.w3.org/1999/xlink" xml:space="preserve" xmlns:serif="http://www.serif.com/" style="fill-rule:evenodd;clip-rule:evenodd;stroke-linecap:round;stroke-linejoin:round;stroke-miterlimit:1.5;"><g id="dude"><path d="M78.949,607.009c0,-9.947 30.966,-9.947 30.966,-0c-0,9.947 -5.539,18.022 -15.486,18.022c-9.947,0 -15.48,-8.075 -15.48,-18.022Z" style="fill:#472d30;"/><path d="M78.949,607.009c0,-9.947 30.966,-9.947 30.966,-0c-0,9.947 -5.539,18.022 -15.486,18.022c-9.947,0 -15.48,-8.075 -15.48,-18.022Zm6.265,0.759c0.232,5.943 3.207,11.013 9.215,11.013c6.01,0 8.989,-5.07 9.221,-11.013c-0.494,-0.28 -1.489,-0.816 -2.252,-1.049c-2.059,-0.63 -4.514,-0.921 -6.966,-0.921c-2.451,0 -4.906,0.291 -6.966,0.921c-0.763,0.233 -1.757,0.769 -2.252,1.049Z"/><path d="M40.015,607.009c0,-9.947 30.966,-9.947 30.966,-0c-0,9.947 -5.539,18.022 -15.486,18.022c-9.947,0 -15.48,-8.075 -15.48,-18.022Z" style="fill:#472d30;"/><path d="M40.015,607.009c0,-9.947 30.966,-9.947 30.966,-0c-0,9.947 -5.539,18.022 -15.486,18.022c-9.947,0 -15.48,-8.075 -15.48,-18.022Zm6.265,0.759c0.232,5.943 3.207,11.013 9.215,11.013c6.009,0 8.989,-5.07 9.221,-11.013c-0.495,-0.28 -1.489,-0.816 -2.252,-1.049c-2.06,-0.63 -4.515,-0.921 -6.966,-0.921c-2.452,0 -4.907,0.291 -6.966,0.921c-0.763,0.233 -1.757,0.769 -2.252,1.049Z"/><path d="M39.722,402.458l0,204.551l30.966,-0l-0,-204.551l7.968,0l0,204.551l30.966,-0l-0,-204.551l10.45,-10.45l0,-266.325l10.186,0l0,202.259c2.665,7.58 14.813,6.652 15.968,-0l-0,-228.872l-39.92,0l-12.167,-4.843l-8.921,-14.54l-21.123,-0l-8.883,14.54l-12.168,4.843l-39.919,0l-0,228.872c1.155,6.652 13.303,7.58 15.968,-0l-0,-202.259l10.186,0l-0,266.325l10.45,10.45" style="fill:#472d30;stroke:#000;stroke-width:6.25px;"/><circle cx="74.675" cy="47.565" r="47.565" style="fill:#472d30;"/><path d="M74.675,0c26.252,0 47.566,21.313 47.566,47.565c-0,26.252 -21.314,47.566 -47.566,47.566c-26.252,-0 -47.565,-21.314 -47.565,-47.566c0,-26.252 21.313,-47.565 47.565,-47.565Zm0,6.25c-22.802,0 -41.315,18.513 -41.315,41.315c0,22.803 18.513,41.316 41.315,41.316c22.803,-0 41.316,-18.513 41.316,-41.316c-0,-22.802 -18.513,-41.315 -41.316,-41.315Z"/></g></svg>